<svg width="459" height="766" viewBox="0 0 459 766" fill="none" xmlns="http://www.w3.org/2000/svg">
<g clip-path="url(#clip0_1_2)">
<rect width="766" height="459" transform="translate(0 766) rotate(-90)" fill="black"/>
<path d="M284.217 766L458.587 381" stroke="#FFCDFA" stroke-width="2"/>
<path d="M268.487 765.733L458.587 381" stroke="#FFCDFA" stroke-width="2"/>
<path d="M249.557 766L458.587 381" stroke="#FFCDFA" stroke-width="2"/>
<path d="M226.094 766L458.587 381" stroke="#FFCDFA" stroke-width="2"/>
<path d="M196.766 766L458.587 381" stroke="#FFCDFA" stroke-width="2"/>
<path d="M159.439 766L458.587 381" stroke="#FFCDFA" stroke-width="2"/>
<path d="M109.314 766L458.587 381" stroke="#FFCDFA" stroke-width="2"/>
<path d="M38.9266 766L458.587 381" stroke="#FFCDFA" stroke-width="2"/>
<path d="M0 716.942L458.587 381" stroke="#FFCDFA" stroke-width="2"/>
<path d="M0 631.623L458.587 381" stroke="#FFCDFA" stroke-width="2"/>
<path d="M0 546.838L458.587 381" stroke="#FFCDFA" stroke-width="2"/>
<path d="M0 462.053L458.587 381" stroke="#FFCDFA" stroke-width="2"/>
<path d="M-1.39852e-07 377.801L458.587 381" stroke="#FFCDFA" stroke-width="2"/>
<path d="M284.217 -4L458.587 381" stroke="#FFCDFA" stroke-width="2"/>
<path d="M268.487 -3.73334L458.587 381" stroke="#FFCDFA" stroke-width="2"/>
<path d="M249.557 -4L458.587 381" stroke="#FFCDFA" stroke-width="2"/>
<path d="M226.094 -4L458.587 381" stroke="#FFCDFA" stroke-width="2"/>
<path d="M196.766 -4L458.587 381" stroke="#FFCDFA" stroke-width="2"/>
<path d="M159.439 -4L458.587 381" stroke="#FFCDFA" stroke-width="2"/>
<path d="M109.314 -4L458.587 381" stroke="#FFCDFA" stroke-width="2"/>
<path d="M38.9266 -4L458.587 381" stroke="#FFCDFA" stroke-width="2"/>
<path d="M0 45.0582L458.587 381" stroke="#FFCDFA" stroke-width="2"/>
<path d="M0 130.377L458.587 381" stroke="#FFCDFA" stroke-width="2"/>
<path d="M0 215.162L458.587 381" stroke="#FFCDFA" stroke-width="2"/>
<path d="M0 299.947L458.587 381" stroke="#FFCDFA" stroke-width="2"/>
<path d="M55.9903 766L55.9903 -1.8671" stroke="#FFCDFA" stroke-width="2"/>
<path d="M100.249 766L100.249 -1.8671" stroke="#FFCDFA" stroke-width="2"/>
<path d="M136.51 766L136.51 -1.8671" stroke="#FFCDFA" stroke-width="2"/>
<path d="M165.305 766L165.305 -1.8671" stroke="#FFCDFA" stroke-width="2"/>
<path d="M189.834 766L189.834 -1.86711" stroke="#FFCDFA" stroke-width="2"/>
<path d="M210.097 766L210.097 -1.86711" stroke="#FFCDFA" stroke-width="2"/>
<path d="M227.694 766L227.694 -1.86711" stroke="#FFCDFA" stroke-width="2"/>
<path d="M243.158 766L243.158 -1.86711" stroke="#FFCDFA" stroke-width="2"/>
<path d="M257.022 766L257.022 -1.86711" stroke="#FFCDFA" stroke-width="2"/>
<path d="M268.753 766L268.753 -1.86711" stroke="#FFCDFA" stroke-width="2"/>
<path d="M278.885 766L278.885 -1.86711" stroke="#FFCDFA" stroke-width="2"/>
<path d="M288.483 766L288.483 -1.86711" stroke="#FFCDFA" stroke-width="2"/>
<rect y="766" width="766" height="1024" transform="rotate(-90 0 766)" fill="url(#paint0_linear_1_2)"/>
</g>
<defs>
<linearGradient id="paint0_linear_1_2" x1="383" y1="742.5" x2="383" y2="1790" gradientUnits="userSpaceOnUse">
<stop stop-opacity="0.4"/>
<stop offset="0.306976"/>
</linearGradient>
<clipPath id="clip0_1_2">
<rect width="766" height="459" fill="white" transform="translate(0 766) rotate(-90)"/>
</clipPath>
</defs>
</svg>
